<?xml version="1.0" encoding="utf-8"?>
<!-- Generator: Adobe Illustrator 19.1.0, SVG Export Plug-In . SVG Version: 6.00 Build 0)  -->
<svg version="1.1" id="Layer_1" xmlns="http://www.w3.org/2000/svg" xmlns:xlink="http://www.w3.org/1999/xlink" x="0px" y="0px"
	 viewBox="0 0 208.3 193.6" style="enable-background:new 0 0 208.3 193.6;" xml:space="preserve">
<style type="text/css">
	.st0{fill:none;stroke:#FFFFFF;stroke-miterlimit:10;}
	.st1{fill:none;stroke:#FFEA78;stroke-miterlimit:10;}
	.st2{fill:none;stroke:#FFEA78;stroke-width:3;stroke-miterlimit:10;}
	.st3{fill:none;stroke:#FFFFFF;stroke-width:8.8774;stroke-miterlimit:10;}
	.st4{fill:none;stroke:#77FFCD;stroke-width:3.551;stroke-miterlimit:10;}
	.st5{fill:#FFEA78;}
	.st6{fill:#77FFCD;}
</style>
<path class="st3" d="M143,135.5l-15.8,1c-6.9,0.4-12.9-4.9-13.4-11.8l-0.2-3.2c-0.4-6.9-6.4-12.2-13.4-11.8l-3.2,0.2
	c-6.9,0.4-12.9-4.9-13.4-11.8l-0.2-3.2c-0.4-6.9-6.4-12.2-13.4-11.8l-2.4,0.1c-7.3,0.4-13.4-5.3-13.4-12.6v0c0-7.3-6.1-13-13.4-12.6
	l-2.4,0.1c-6.9,0.4-12.9-4.9-13.4-11.8l-1-15.8"/>
<polyline class="st4" points="185.5,101.4 162,117.4 146.1,93.8 122.6,109.7 106.7,86.2 83.1,102.1 69.5,79.1 46,95 30,71.4 "/>
</svg>
